<?xml version="1.0" standalone="no"?><!DOCTYPE svg PUBLIC "-//W3C//DTD SVG 1.1//EN" "http://www.w3.org/Graphics/SVG/1.1/DTD/svg11.dtd"><svg t="1594282673800" class="icon" viewBox="0 0 1024 1024" version="1.1" xmlns="http://www.w3.org/2000/svg" p-id="6924" xmlns:xlink="http://www.w3.org/1999/xlink" width="32" height="32"><defs><style type="text/css"></style></defs><path d="M289.6 104h81.6c6.4 3.2 14.4 4.8 20.8 9.6 8 4.8 12.8 12.8 19.2 19.2 8 9.6 22.4 19.2 35.2 24 14.4 6.4 30.4 9.6 48 12.8 6.4 0 11.2 0 17.6 1.6 8 1.6 17.6 0 24-1.6 33.6-6.4 51.2-11.2 72-28.8 8-6.4 12.8-17.6 22.4-24 4.8-3.2 9.6-4.8 16-8 4.8-1.6 8 0 11.2-3.2h24c22.4 0 57.6-3.2 72 4.8 11.2 6.4 19.2 14.4 27.2 22.4 11.2 11.2 24 22.4 35.2 33.6 38.4 35.2 75.2 72 113.6 107.2 11.2 12.8 25.6 22.4 36.8 35.2 9.6 9.6 20.8 17.6 25.6 32v6.4c3.2 16-4.8 27.2-12.8 36.8-32 30.4-64 59.2-94.4 89.6-11.2 12.8-25.6 30.4-46.4 33.6-27.2 4.8-43.2-11.2-56-24-4.8-4.8-8-9.6-12.8-12.8H768v412.8c-1.6 11.2-9.6 20.8-16 27.2-19.2 14.4-52.8 11.2-86.4 11.2H342.4c-24 0-48 1.6-62.4-6.4-8-4.8-16-14.4-19.2-22.4-3.2-9.6-3.2-24-3.2-38.4V473.6H256c-14.4 11.2-24 27.2-43.2 33.6-16 6.4-35.2 0-44.8-6.4-6.4-4.8-12.8-11.2-17.6-16-14.4-12.8-28.8-27.2-43.2-40-6.4-6.4-12.8-12.8-20.8-19.2-8-6.4-16-14.4-24-22.4-9.6-9.6-19.2-16-25.6-28.8-1.6-4.8-6.4-14.4-4.8-24 4.8-20.8 17.6-32 30.4-43.2 8-6.4 16-14.4 24-22.4l134.4-128c8-8 16-16 24-22.4 12.8-14.4 22.4-28.8 44.8-30.4z" p-id="6925"></path></svg>