<?xml version="1.0" standalone="no"?><!DOCTYPE svg PUBLIC "-//W3C//DTD SVG 1.1//EN" "http://www.w3.org/Graphics/SVG/1.1/DTD/svg11.dtd"><svg t="1594269630903" class="icon" viewBox="0 0 1024 1024" version="1.1" xmlns="http://www.w3.org/2000/svg" p-id="10662" xmlns:xlink="http://www.w3.org/1999/xlink" width="32" height="32"><defs><style type="text/css"></style></defs><path d="M921.6 121.018H102.4c-41.053 0-74.473 33.42-74.473 74.473v633.018c0 41.053 33.42 74.473 74.473 74.473h819.2c41.053 0 74.473-33.42 74.473-74.473V195.491c0-41.053-33.42-74.473-74.473-74.473z m37.236 707.491c0 20.573-16.663 37.236-37.236 37.236H102.4c-20.573 0-37.236-16.663-37.236-37.236V195.491c0-20.573 16.663-37.236 37.236-37.236h819.2c20.573 0 37.236 16.663 37.236 37.236v633.018z" fill="#353535" p-id="10663"></path><path d="M188.695 399.825c51.293 0 93.091-41.797 93.091-93.09s-41.798-93.091-93.09-93.091-93.092 41.797-93.092 93.09 41.798 93.091 93.091 93.091z m0-148.945c30.813 0 55.855 25.041 55.855 55.855s-25.042 55.854-55.855 55.854-55.854-25.041-55.854-55.854 25.041-55.855 55.854-55.855zM891.16 771.63H369.85c-10.054 0-18.153 8.1-18.153 18.153s8.1 18.153 18.153 18.153h521.31c10.053 0 18.152-8.099 18.152-18.153s-8.192-18.152-18.153-18.152z" fill="#353535" p-id="10664"></path><path d="M891.16 770.7H369.85c-10.52 0-19.083 8.564-19.083 19.083s8.564 19.084 19.083 19.084h521.31c10.519 0 19.083-8.564 19.083-19.084s-8.564-19.083-19.084-19.083z m0 37.236H369.85c-10.054 0-18.153-8.099-18.153-18.153s8.1-18.152 18.153-18.152h521.31c10.053 0 18.152 8.098 18.152 18.152s-8.192 18.153-18.153 18.153z" fill="#231815" p-id="10665"></path><path d="M891.16 685.987H556.031c-10.054 0-18.153 8.099-18.153 18.153s8.1 18.152 18.153 18.152h335.127c10.054 0 18.153-8.099 18.153-18.152s-8.192-18.153-18.153-18.153z" fill="#353535" p-id="10666"></path><path d="M891.16 685.056H556.031c-10.52 0-19.084 8.564-19.084 19.084s8.565 19.083 19.084 19.083h335.127c10.52 0 19.084-8.564 19.084-19.083s-8.564-19.084-19.084-19.084z m0 37.236H556.031c-10.054 0-18.153-8.099-18.153-18.152s8.1-18.153 18.153-18.153h335.127c10.054 0 18.153 8.099 18.153 18.153s-8.192 18.152-18.153 18.152z" fill="#231815" p-id="10667"></path><path d="M431.942 625.012l0.093-0.093 0.186 0.186 229.283-229.282L877.94 612.259c7.261 7.261 19.084 7.261 26.345 0 7.261-7.261 7.261-19.084 0-26.345L687.85 369.478l0.093-0.093-26.345-26.345-229.469 229.47-149.69-149.598-0.093 0.093-0.093-0.093-162.537 162.63c-7.261 7.26-7.261 19.083 0 26.345 7.261 7.26 19.084 7.26 26.345 0l136.378-136.379 149.504 149.504z" fill="#FEC500" p-id="10668"></path></svg>